<?xml version="1.0" encoding="UTF-8"?>
<svg width="366px" height="50px" viewBox="0 0 366 50" version="1.1" xmlns="http://www.w3.org/2000/svg" xmlns:xlink="http://www.w3.org/1999/xlink">
    <title>navigation/PURO logo/chinese备份 2</title>
    <g id="navigation/PURO-logo/chinese备份-2" stroke="none" stroke-width="1" fill="none" fill-rule="evenodd">
        <g id="UST-GZ_4C_tc_L1" transform="translate(1.000000, 1.000000)" fill-rule="nonzero">
            <g id="编组" transform="translate(-0.000000, 0.000000)">
                <path d="M24.0572792,48 L18.4439141,38.6634845 C18.4439141,38.6634845 18.2720764,38.4343675 18.2720764,38.0906921 L18.2720764,37.8615752 L18.2720764,37.4033413 L18.2720764,20.7350835 L16.1527446,20.7350835 L16.1527446,38.0906921 L16.1527446,38.6062053 C16.3245823,38.778043 19.875895,44.7923628 19.875895,44.7923628 L11.1121718,44.7923628 C11.1121718,44.7923628 14.6634845,38.778043 14.8353222,38.6062053 L14.8353222,38.0906921 L14.8353222,20.7350835 L12.7159905,20.7350835 L12.7159905,37.4033413 L12.7159905,37.8615752 L12.7159905,38.0906921 C12.7159905,38.4343675 12.5441527,38.6634845 12.5441527,38.6634845 L6.93078759,48 L24.0572792,48 Z" id="路径" fill="#996600"></path>
                <g transform="translate(8.540659, 0.000000)" fill="#996600" id="路径">
                    <path d="M13.7982428,8.59188544 C13.7982428,8.59188544 14.8292691,4.23866348 11.1061187,1.37470167 C11.1061187,1.37470167 9.6168586,2.54370908e-16 6.75289679,2.54370908e-16 C4.17533115,2.54370908e-16 2.68607101,1.37470167 2.68607101,1.37470167 C-0.807962403,3.78042959 0.108505377,8.59188544 0.108505377,8.59188544 L13.7982428,8.59188544 Z"></path>
                    <path d="M0.509460031,9.7947494 L13.3972882,9.7947494 C13.5118467,9.56563246 13.5691259,9.27923628 13.6836844,9.05011933 L0.22306385,9.05011933 C0.280343086,9.27923628 0.394901559,9.56563246 0.509460031,9.7947494 Z"></path>
                    <path d="M13.2254505,10.2529833 L0.68129774,10.2529833 C0.795856212,10.5393795 0.967693921,10.7684964 1.13953163,10.9976134 L12.7672166,10.9976134 C12.9390543,10.7684964 13.0536128,10.4821002 13.2254505,10.2529833 Z"></path>
                    <path d="M1.99872017,12.0286396 L11.9080281,12.0286396 C12.0798658,11.8568019 12.2517035,11.627685 12.4235412,11.398568 L1.42592781,11.398568 C1.59776552,11.627685 1.76960323,11.8568019 1.99872017,12.0286396 Z"></path>
                    <path d="M3.02974643,12.9451074 L10.8197226,12.9451074 C11.0488395,12.8305489 11.2206772,12.6587112 11.3925149,12.4868735 L2.45695406,12.4868735 C2.62879177,12.6587112 2.85790872,12.8305489 3.02974643,12.9451074 Z"></path>
                    <path d="M4.11805192,13.575179 C4.97724046,13.9761337 5.95098748,14.2052506 6.92473449,14.2052506 C7.95576075,14.2052506 8.87222853,13.9761337 9.73141707,13.575179 L4.11805192,13.575179 Z"></path>
                </g>
                <path d="M28.8687351,14.4916468 L18.3293556,14.4916468 C18.3293556,14.4916468 17.3556086,14.4916468 16.5536993,15.0071599 C15.9236277,15.4081146 15.522673,16.3818616 15.522673,16.4391408 L15.522673,16.4391408 C15.522673,16.3818616 15.0644391,15.4081146 14.4916468,15.0071599 C13.6897375,14.4916468 12.7159905,14.4916468 12.7159905,14.4916468 L2.11933174,14.4916468 L-5.08741816e-16,17.8711217 L9.68019093,17.8711217 C9.68019093,17.8711217 9.96658711,17.8711217 10.1384248,17.928401 C10.424821,17.9856802 10.9403341,18.1002387 11.4558473,18.5011933 C12.2004773,19.0167064 12.372315,19.3031026 12.5441527,19.4749403 C12.6587112,19.5894988 12.8878282,19.875895 12.8878282,19.875895 L15.2362768,19.875895 L15.522673,19.875895 L15.522673,19.875895 L16.3245823,19.875895 L18.1575179,19.875895 C18.1575179,19.875895 18.3866348,19.5894988 18.5011933,19.4749403 C18.673031,19.3031026 18.902148,19.0167064 19.5894988,18.5011933 C20.1050119,18.1002387 20.6205251,17.9856802 20.9069212,17.928401 C21.0787589,17.8711217 21.3651551,17.8711217 21.3651551,17.8711217 L31.0453461,17.8711217 L28.8687351,14.4916468 Z" id="路径" fill="#003366"></path>
                <g transform="translate(1.088305, 18.902148)" fill="#003366" id="路径">
                    <g transform="translate(0.000000, 0.000000)">
                        <path d="M-5.08741816e-16,4.06993452e-15 L-5.08741816e-16,15.8663484 C-5.08741816e-16,15.8663484 -5.08741816e-16,16.0381862 -5.08741816e-16,16.0954654 C-5.08741816e-16,16.2673031 -5.08741816e-16,16.4391408 -5.08741816e-16,16.5536993 C0.171837709,18.2720764 0.687350835,19.5322196 1.71837709,21.1360382 C3.26491647,23.7136038 6.07159905,25.5465394 6.07159905,25.5465394 L7.38902148,23.4272076 C7.38902148,23.4272076 5.61336516,22.4534606 4.12410501,20.2768496 C3.83770883,19.8186158 3.55131265,19.4176611 3.3221957,19.0167064 C3.150358,18.6157518 2.97852029,18.3293556 2.86396181,17.9856802 C2.86396181,17.7565632 2.80668258,17.5274463 2.74940334,17.2983294 C2.69212411,17.0119332 2.63484487,16.7828162 2.63484487,16.49642 C2.63484487,16.3818616 2.63484487,15.9809069 2.63484487,15.9809069 L2.63484487,15.9236277 L2.63484487,4.06993452e-15 L-5.08741816e-16,4.06993452e-15 Z"></path>
                        <path d="M4.00954654,4.06993452e-15 L4.00954654,15.9809069 C4.00954654,15.9809069 4.00954654,16.0381862 4.00954654,16.0954654 C4.00954654,16.1527446 4.00954654,16.2673031 4.00954654,16.3818616 C4.00954654,16.4391408 4.00954654,16.49642 4.00954654,16.5536993 C4.06682578,16.7828162 4.12410501,17.0119332 4.23866348,17.3556086 C4.41050119,17.8711217 4.75417661,18.5584726 5.2124105,19.3031026 C6.41527446,21.1933174 8.13365155,22.1097852 8.13365155,22.1097852 L9.45107399,20.0477327 C9.45107399,20.0477327 8.9928401,19.8186158 8.47732697,19.3031026 C8.13365155,18.9594272 7.67541766,18.5011933 7.33174224,17.9856802 C6.98806683,17.4701671 6.75894988,16.8973747 6.64439141,16.49642 C6.52983294,16.1527446 6.52983294,15.8663484 6.52983294,15.6945107 C6.52983294,15.522673 6.52983294,15.4653938 6.52983294,15.4653938 L6.52983294,4.06993452e-15 L4.00954654,4.06993452e-15 L4.00954654,4.06993452e-15 Z"></path>
                    </g>
                    <g transform="translate(19.360382, 0.000000)">
                        <path d="M9.50835322,4.06993452e-15 L9.50835322,15.8663484 C9.50835322,15.8663484 9.50835322,16.0381862 9.50835322,16.0954654 C9.50835322,16.2673031 9.50835322,16.4391408 9.50835322,16.5536993 C9.33651551,18.2720764 8.82100239,19.5322196 7.78997613,21.1360382 C6.24343675,23.7136038 3.43675418,25.5465394 3.43675418,25.5465394 L2.11933174,23.4272076 C2.11933174,23.4272076 3.89498807,22.4534606 5.38424821,20.2768496 C5.67064439,19.8186158 5.95704057,19.4176611 6.18615752,19.0167064 C6.35799523,18.6157518 6.52983294,18.3293556 6.64439141,17.9856802 C6.70167064,17.7565632 6.81622912,17.5274463 6.81622912,17.2983294 C6.87350835,17.0119332 6.93078759,16.7828162 6.93078759,16.49642 C6.93078759,16.3818616 6.93078759,15.9809069 6.93078759,15.9809069 L6.93078759,15.9236277 L6.93078759,4.06993452e-15 L9.50835322,4.06993452e-15 Z"></path>
                        <path d="M5.44152745,4.06993452e-15 L5.44152745,15.9809069 C5.44152745,15.9809069 5.44152745,16.0381862 5.44152745,16.0954654 C5.44152745,16.1527446 5.44152745,16.2673031 5.44152745,16.3818616 C5.44152745,16.4391408 5.44152745,16.49642 5.44152745,16.5536993 C5.38424821,16.7828162 5.32696897,17.0119332 5.2124105,17.3556086 C5.04057279,17.8711217 4.69689737,18.5584726 4.23866348,19.3031026 C3.03579952,21.1933174 1.31742243,22.1097852 1.31742243,22.1097852 L0,20.0477327 C0,20.0477327 0.45823389,19.8186158 0.973747017,19.3031026 C1.31742243,18.9594272 1.77565632,18.5011933 2.11933174,17.9856802 C2.46300716,17.4701671 2.69212411,16.8973747 2.80668258,16.49642 C2.92124105,16.1527446 2.92124105,15.8663484 2.92124105,15.6945107 C2.92124105,15.522673 2.92124105,15.4653938 2.92124105,15.4653938 L2.92124105,4.06993452e-15 L5.44152745,4.06993452e-15 L5.44152745,4.06993452e-15 Z"></path>
                    </g>
                </g>
            </g>
            <g id="编组" transform="translate(44.047733, 15.522673)" fill="#003366">
                <g transform="translate(0.000000, 0.515513)">
                    <path d="M22.2816229,14.0334129 L22.2816229,25.947494 L19.7040573,25.947494 L19.7040573,24.6873508 L6.24343675,24.6873508 L6.24343675,25.947494 L3.66587112,25.947494 L3.66587112,14.2052506 C3.20763723,14.4343675 2.40572792,14.6634845 1.31742243,15.0644391 L8.13986905e-15,12.601432 C3.3221957,11.7995227 6.24343675,10.3675418 8.70644391,8.30548926 L0.286396181,8.30548926 L0.286396181,6.01431981 L11.5704057,6.01431981 L11.5704057,3.78042959 C7.44630072,3.89498807 4.52505967,3.9522673 2.69212411,3.9522673 L1.77565632,1.43198091 C2.80668258,1.48926014 4.12410501,1.48926014 5.61336516,1.48926014 C12.8878282,1.48926014 18.4439141,1.08830549 22.1670644,0.229116945 L23.3699284,2.46300716 C20.9069212,2.97852029 17.8138425,3.37947494 14.0906921,3.72315036 L14.0906921,6.01431981 L25.6610979,6.01431981 L25.6610979,8.30548926 L16.8400955,8.30548926 C18.902148,10.3102625 21.9379475,11.6849642 25.8902148,12.4868735 L24.6873508,15.0071599 C24.3436754,14.8353222 23.9427208,14.7207637 23.4844869,14.548926 C23.026253,14.4343675 22.6252983,14.2625298 22.2816229,14.0334129 Z M5.26968974,13.4033413 L11.5131265,13.4033413 L11.5131265,8.3627685 C9.96658711,10.6539379 7.84725537,12.3150358 5.26968974,13.4033413 Z M19.7040573,15.75179 L6.24343675,15.75179 L6.24343675,17.8138425 L19.7613365,17.8138425 L19.7613365,15.75179 L19.7040573,15.75179 Z M6.24343675,22.3961814 L19.7613365,22.3961814 L19.7613365,19.9904535 L6.24343675,19.9904535 L6.24343675,22.3961814 Z M14.0906921,8.3627685 L14.0906921,13.4606205 L20.849642,13.4606205 C18.1002387,12.3150358 15.8090692,10.6539379 14.0906921,8.3627685 Z" id="形状"></path>
                    <path d="M40.9546539,17.4701671 C40.2100239,20.4486874 39.0644391,23.1408115 37.4606205,25.6610979 L35.2840095,23.4272076 C36.8878282,21.1360382 37.9761337,18.7303103 38.548926,16.0954654 L40.9546539,17.4701671 Z M39.2362768,13.0023866 C37.7470167,11.7422434 36.4868735,10.7684964 35.398568,10.0238663 L37.0596659,7.96181384 C38.3770883,8.64916468 39.6945107,9.56563246 41.1264916,10.5966587 L39.2362768,13.0023866 Z M41.928401,3.20763723 L45.5942721,3.20763723 L45.5942721,0.343675418 L48.1145585,0.343675418 L48.1145585,3.20763723 L53.097852,3.20763723 L53.097852,0.343675418 L55.5608592,0.343675418 L55.5608592,3.20763723 L60.0859189,3.20763723 L60.0859189,5.38424821 L55.5608592,5.38424821 L55.5608592,8.19093079 L60.4868735,8.19093079 L60.4868735,10.4821002 L55.274463,10.4821002 C56.0190931,11.9713604 57.8520286,13.4606205 60.8305489,14.8926014 L59.627685,17.3556086 C57.9665871,16.3245823 56.5346062,15.3508353 55.4463007,14.3770883 L55.4463007,19.9904535 L46.6252983,19.9904535 L46.6252983,21.7661098 C46.6252983,22.3961814 46.9689737,22.7398568 47.5990453,22.7398568 L55.7326969,22.7398568 C56.477327,22.7398568 56.9355609,22.4534606 57.1073986,21.8806683 C57.2792363,21.3078759 57.3937947,20.2768496 57.5083532,18.8448687 L60.1431981,19.8186158 C59.8568019,22.3389021 59.4558473,23.8854415 58.9403341,24.4009547 C58.4821002,24.9164678 57.5083532,25.1455847 56.1336516,25.1455847 L47.2553699,25.1455847 C46.1097852,25.1455847 45.2505967,24.9164678 44.7923628,24.5155131 C44.3341289,24.0572792 44.1050119,23.1980907 44.1050119,21.9952267 L44.1050119,15.75179 C43.646778,16.1527446 42.7875895,16.725537 41.5847255,17.4701671 L40.0381862,15.1789976 C43.0739857,13.8042959 45.0214797,12.2577566 45.823389,10.5393795 L41.4128878,10.5393795 L41.4128878,8.24821002 L45.5942721,8.24821002 L45.5942721,5.49880668 L41.928401,5.49880668 L41.928401,4.00954654 L40.2673031,6.07159905 C38.778043,4.69689737 37.4033413,3.60859189 36.2004773,2.86396181 L38.0334129,0.859188544 C39.5799523,1.83293556 40.8973747,2.74940334 41.9856802,3.55131265 L41.9856802,3.20763723 L41.928401,3.20763723 Z M46.6252983,15.1217184 L46.6252983,17.8138425 L52.9260143,17.8138425 L52.9260143,15.1217184 L46.6252983,15.1217184 Z M48.6873508,10.4821002 C48.2863962,11.398568 47.7708831,12.2577566 47.0835322,12.9451074 L54.071599,12.9451074 C53.4415274,12.2577566 52.9260143,11.4558473 52.4105012,10.4821002 L48.6873508,10.4821002 Z M48.0572792,5.49880668 L48.0572792,8.19093079 L53.0405728,8.19093079 L53.0405728,5.49880668 L48.0572792,5.49880668 Z" id="形状"></path>
                    <path d="M75.4940334,4.06682578 C74.5202864,4.23866348 73.0883055,4.41050119 71.2553699,4.52505967 L70.6825776,2.23389021 C74.7494033,2.00477327 78.300716,1.37470167 81.221957,0.286396181 L82.1384248,2.5202864 C80.8210024,2.97852029 79.4463007,3.37947494 78.0143198,3.66587112 L78.0143198,7.56085919 L82.1957041,7.56085919 L82.1957041,9.90930788 L78.0143198,9.90930788 L78.0143198,10.1384248 C80.0763723,12.0286396 81.6229117,13.575179 82.6539379,14.6634845 L81.1073986,17.0119332 C80.5346062,16.2673031 80.0190931,15.522673 79.4463007,14.9498807 C78.9880668,14.3770883 78.4725537,13.7470167 78.0143198,13.1169451 L78.0143198,25.8329356 L75.4940334,25.947494 L75.4940334,14.6634845 C74.8066826,16.4391408 73.5465394,18.4439141 71.7708831,20.7923628 L70.2243437,18.3293556 C72.5155131,15.6945107 74.2338902,12.8878282 75.3794749,9.85202864 L70.3389021,9.85202864 L70.3389021,7.50357995 L75.4367542,7.50357995 L75.4367542,4.06682578 L75.4940334,4.06682578 Z M81.8520286,19.8186158 L81.8520286,17.2983294 L91.0167064,15.9236277 L91.0167064,0.114558473 L93.5369928,0.114558473 L93.5369928,15.5799523 L96,15.1789976 L96,17.699284 L93.5369928,18.1002387 L93.5369928,25.947494 L91.0167064,25.947494 L91.0167064,18.3866348 L81.8520286,19.8186158 Z M87.8090692,14.2625298 C85.9188544,12.7159905 84.2577566,11.4558473 82.8257757,10.5966587 L84.4295943,8.76372315 C85.8042959,9.45107399 87.4653938,10.5966587 89.5274463,12.1431981 L87.8090692,14.2625298 Z M88.3245823,7.56085919 C86.3198091,5.95704057 84.6587112,4.75417661 83.398568,3.9522673 L85.0596659,2.11933174 C86.2625298,2.80668258 87.9236277,3.89498807 90.1002387,5.44152745 L88.3245823,7.56085919 Z" id="形状"></path>
                    <path d="M115.646778,8.24821002 L112.439141,8.24821002 L112.439141,13.1169451 C113.928401,12.6587112 114.959427,12.2577566 115.646778,11.9140811 L115.646778,14.6062053 C115.073986,14.8926014 113.98568,15.3508353 112.439141,15.8663484 L112.439141,22.5680191 C112.439141,23.8854415 112.267303,24.7446301 111.866348,25.1455847 C111.465394,25.6038186 110.606205,25.7756563 109.231504,25.7756563 L107.054893,25.7756563 L106.424821,23.026253 L108.830549,23.0835322 C109.403341,23.0835322 109.747017,22.797136 109.747017,22.1670644 L109.747017,16.5536993 C108.200477,16.9546539 106.997613,17.2410501 106.081146,17.4701671 L105.451074,14.4916468 C107.054893,14.3198091 108.486874,14.0334129 109.804296,13.6897375 L109.804296,8.19093079 L105.73747,8.19093079 L105.73747,5.67064439 L109.804296,5.67064439 L109.804296,0.0572792363 L112.49642,0.0572792363 L112.49642,5.67064439 L115.704057,5.67064439 L115.704057,3.89498807 L121.603819,3.89498807 L121.603819,0 L124.295943,0 L124.295943,3.89498807 L130.768496,3.89498807 L130.768496,6.41527446 L124.295943,6.41527446 L124.295943,10.0811456 L129.852029,10.0811456 L129.852029,12.372315 C129.622912,13.3460621 128.99284,14.6634845 128.019093,16.2673031 C127.045346,17.8711217 126.071599,19.1312649 125.040573,20.0477327 C126.873508,21.5369928 128.935561,22.6252983 131.22673,23.2553699 L129.852029,25.8329356 C127.446301,25.0310263 125.155131,23.7136038 123.0358,21.7661098 C120.171838,24 117.365155,25.3747017 114.73031,25.8902148 L113.24105,23.3699284 C115.875895,22.797136 118.51074,21.5942721 121.145585,19.8186158 C119.713604,18.3866348 118.338902,16.4391408 117.02148,13.9761337 L119.312649,13.0596659 C120.572792,15.2935561 121.832936,17.0119332 123.093079,18.2720764 C124.983294,16.7828162 126.300716,14.8926014 127.045346,12.601432 L116.162291,12.601432 L116.162291,10.0811456 L121.603819,10.0811456 L121.603819,6.41527446 L115.704057,6.41527446 L115.646778,8.24821002 Z" id="路径"></path>
                    <path d="M156.887828,9.90930788 C157.288783,12.1431981 158.319809,14.4916468 159.866348,16.9546539 C161.412888,19.4176611 163.53222,21.5369928 166.281623,23.3126492 L164.162291,25.8329356 C159.236277,22.6252983 155.856802,17.2983294 154.023866,9.90930788 L153.565632,9.90930788 C152.362768,16.49642 148.639618,21.823389 142.51074,25.8902148 L140.448687,23.3126492 C143.026253,21.823389 145.260143,19.875895 147.150358,17.4701671 C148.983294,15.0644391 150.128878,12.5441527 150.587112,9.96658711 L141.136038,9.96658711 L141.136038,7.04534606 L151.045346,7.04534606 C151.274463,5.38424821 151.389021,3.09307876 151.389021,0.171837709 L154.252983,0.171837709 C154.252983,3.3221957 154.195704,5.61336516 154.023866,7.04534606 L165.651551,7.04534606 L165.651551,9.96658711 L156.887828,9.90930788 Z" id="路径"></path>
                    <path d="M196.009547,15.0071599 L196.009547,17.0119332 C194.405728,17.8711217 192.400955,18.673031 190.052506,19.4176611 L201.451074,19.4176611 L201.451074,21.6515513 L190.052506,21.6515513 L190.052506,22.797136 C190.052506,24.7446301 189.193317,25.7183771 187.53222,25.7183771 L183.522673,25.7183771 L182.892601,23.4844869 L186.673031,23.5990453 C187.245823,23.5990453 187.47494,23.3126492 187.47494,22.797136 L187.47494,21.6515513 L175.560859,21.6515513 L175.560859,19.4176611 L187.47494,19.4176611 L187.47494,18.2147971 C188.735084,17.9856802 190.338902,17.5847255 192.286396,17.0119332 L180.71599,17.0119332 L180.71599,15.0071599 L196.009547,15.0071599 L196.009547,15.0071599 Z M198.415274,13.8615752 L178.596659,13.8615752 L178.596659,17.8711217 L176.133652,17.8711217 L176.133652,11.6849642 L177.508353,11.6849642 L177.221957,1.14558473 C179.570406,1.08830549 181.632458,0.801909308 183.236277,0.343675418 L184.439141,2.34844869 C183.408115,2.69212411 181.804296,2.92124105 179.570406,3.09307876 L179.627685,4.46778043 L183.923628,4.46778043 L183.923628,6.35799523 L179.742243,6.35799523 L179.742243,7.90453461 L183.923628,7.90453461 L183.923628,9.7947494 L179.799523,9.7947494 L179.856802,11.627685 L197.040573,11.627685 L197.040573,9.7947494 L193.202864,9.7947494 L193.202864,7.90453461 L197.097852,7.90453461 L197.155131,6.35799523 L193.202864,6.35799523 L193.202864,4.46778043 L197.212411,4.46778043 L197.212411,2.97852029 L192.859189,2.97852029 L192.859189,0.801909308 L199.618138,0.801909308 L199.331742,11.627685 L200.763723,11.627685 L200.763723,17.8138425 L198.300716,17.8138425 L198.300716,13.8615752 L198.415274,13.8615752 Z M188.906921,3.9522673 C187.990453,4.52505967 186.902148,5.09785203 185.699284,5.61336516 L184.324582,3.78042959 C185.871122,3.37947494 186.844869,2.97852029 187.360382,2.63484487 C186.902148,2.29116945 186.272076,1.83293556 185.470167,1.37470167 L186.959427,0.0572792363 C187.646778,0.515513126 188.391408,1.03102625 189.136038,1.54653938 C189.937947,1.03102625 190.453461,0.515513126 190.797136,0.0572792363 L192.171838,1.31742243 C191.770883,1.8902148 191.25537,2.34844869 190.568019,2.80668258 C190.911695,3.150358 191.427208,3.60859189 192,4.23866348 L190.338902,5.49880668 C189.594272,4.52505967 189.136038,3.9522673 188.906921,3.9522673 Z M189.078759,9.62291169 C188.21957,10.1957041 187.188544,10.7112172 185.871122,11.1694511 L184.668258,9.33651551 C185.928401,9.05011933 186.902148,8.70644391 187.53222,8.3627685 C187.188544,8.07637232 186.558473,7.67541766 185.699284,7.04534606 L187.131265,5.8424821 C187.47494,6.07159905 187.818616,6.30071599 188.105012,6.4725537 C188.448687,6.70167064 188.849642,6.98806683 189.250597,7.33174224 C189.823389,6.98806683 190.453461,6.41527446 191.140811,5.61336516 L192.572792,6.87350835 C191.885442,7.56085919 191.25537,8.07637232 190.682578,8.53460621 C191.198091,8.9928401 191.713604,9.45107399 192.229117,9.96658711 L190.453461,11.2840095 C189.708831,10.1384248 189.193317,9.62291169 189.078759,9.62291169 Z" id="形状"></path>
                </g>
                <g transform="translate(214.052506, 0.000000)">
                    <g transform="translate(-0.000000, 0.000000)">
                        <path d="M6.87350835,0.286396181 C5.67064439,2.57756563 4.81145585,4.46778043 4.29594272,5.95704057 C3.43675418,8.42004773 3.03579952,10.9976134 3.03579952,13.6324582 C3.03579952,17.928401 4.29594272,22.3389021 6.87350835,26.9212411 L4.81145585,26.9212411 C3.43675418,25.0310263 2.29116945,22.9116945 1.31742243,20.5632458 C0.45823389,18.2147971 -3.25594762e-14,15.8663484 -3.25594762e-14,13.575179 C-3.25594762e-14,10.424821 0.801909308,7.27446301 2.40572792,4.23866348 C3.26491647,2.63484487 4.06682578,1.31742243 4.81145585,0.343675418 L6.87350835,0.343675418 L6.87350835,0.286396181 Z" id="路径"></path>
                        <path d="M17.8138425,3.9522673 L17.8138425,9.05011933 C17.8138425,16.8400955 16.8973747,22.5680191 15.1217184,26.2338902 L13.2315036,24.1145585 C14.6634845,20.7923628 15.4081146,15.6372315 15.4081146,8.59188544 L15.4081146,1.8902148 L26.9212411,1.8902148 C26.8066826,1.71837709 26.5775656,1.14558473 26.1193317,0.286396181 L28.7541766,0 C29.0405728,0.45823389 29.3842482,1.14558473 29.7279236,1.8902148 L39.3508353,1.8902148 L39.3508353,3.9522673 L17.8138425,3.9522673 Z M25.4892601,22.5107399 L27.0357995,24.2291169 C25.0883055,25.1455847 22.3389021,25.8902148 18.8448687,26.4057279 L17.699284,24.2291169 C21.0214797,24 23.5990453,23.4272076 25.4892601,22.5107399 Z M31.274463,22.5107399 L20.1050119,22.5107399 L20.1050119,13.4033413 L27.6658711,13.4033413 L27.6658711,12.0859189 L18.673031,12.0859189 L18.673031,10.1957041 L39.1217184,10.1957041 L39.1217184,12.0859189 L30.0143198,12.0859189 L30.0143198,13.4033413 L37.5178998,13.4033413 L37.5178998,22.5107399 L31.274463,22.5107399 C34.7684964,23.3699284 37.2887828,24 38.778043,24.3436754 L37.4606205,26.4057279 C36.372315,26.0620525 35.2267303,25.7183771 33.9665871,25.3747017 C32.5346062,24.973747 31.2171838,24.5727924 30.0143198,24.1718377 L31.274463,22.5107399 Z M27.6085919,17.0692124 L27.6085919,15.2362768 L22.4534606,15.2362768 L22.4534606,17.0692124 L27.6085919,17.0692124 Z M27.6085919,20.6778043 L27.6085919,18.7875895 L22.4534606,18.7875895 L22.4534606,20.6778043 L27.6085919,20.6778043 Z M35.1694511,17.0692124 L35.1694511,15.2362768 L30.0143198,15.2362768 L30.0143198,17.0692124 L35.1694511,17.0692124 Z M35.1694511,20.6778043 L35.1694511,18.7875895 L30.0143198,18.7875895 L30.0143198,20.6778043 L35.1694511,20.6778043 Z" id="形状"></path>
                        <path d="M52.6396181,7.1026253 C52.4105012,9.90930788 51.8949881,12.7159905 50.9785203,15.6372315 L48.3436754,14.6062053 C49.3747017,12.3150358 49.947494,9.62291169 50.0620525,6.58711217 L52.6396181,7.1026253 Z M51.150358,25.8902148 L48.7446301,23.6563246 C50.4057279,22.4534606 51.7231504,20.9069212 52.6396181,19.0739857 C53.5560859,17.1837709 54.0143198,14.3198091 54.0143198,10.424821 L54.0143198,0.687350835 L56.7637232,0.687350835 L56.7637232,12.4295943 C56.7637232,18.2147971 54.8735084,22.7398568 51.150358,25.8902148 Z M59.1694511,15.5799523 C58.5966587,12.0859189 57.8520286,9.39379475 56.9928401,7.61813842 L59.4558473,6.70167064 C60.4295943,9.39379475 61.2315036,12.1431981 61.8042959,14.8926014 L59.1694511,15.5799523 Z M62.3198091,0.91646778 L64.9546539,0.91646778 L64.9546539,25.5465394 L62.3198091,25.5465394 L62.3198091,0.91646778 Z M67.9331742,15.3508353 C67.646778,12.8878282 66.8448687,10.2529833 65.5274463,7.44630072 L67.9331742,6.52983294 C69.1933174,9.45107399 70.1097852,12.0859189 70.6825776,14.548926 L67.9331742,15.3508353 Z M71.1408115,0.343675418 L73.8902148,0.343675418 L73.8902148,26.4630072 L71.1408115,26.4630072 L71.1408115,0.343675418 Z" id="形状"></path>
                        <path d="M88.3245823,13.6324582 C88.3245823,16.7828162 87.522673,19.875895 85.9188544,22.9689737 C85.1169451,24.4582339 84.3150358,25.7756563 83.5131265,26.8639618 L81.451074,26.8639618 C82.6539379,24.5727924 83.5131265,22.6825776 84.0859189,21.2505967 C84.9451074,18.7875895 85.3460621,16.2100239 85.3460621,13.5178998 C85.3460621,9.22195704 84.0859189,4.81145585 81.5083532,0.229116945 L83.5704057,0.229116945 C84.9451074,2.06205251 86.0906921,4.18138425 87.0071599,6.58711217 C87.8663484,9.05011933 88.3245823,11.398568 88.3245823,13.6324582 Z" id="路径"></path>
                    </g>
                    <polygon id="路径" points="25.7183771 10.9976134 25.7183771 8.3627685 32.0763723 8.3627685 32.0763723 10.9976134 34.5966587 10.9976134 34.5966587 8.3627685 38.2052506 8.3627685 38.2052506 6.4725537 34.5966587 6.4725537 34.5966587 4.63961814 32.0763723 4.63961814 32.0763723 6.4725537 25.7183771 6.4725537 25.7183771 4.63961814 23.1980907 4.63961814 23.1980907 6.4725537 19.3031026 6.4725537 19.3031026 8.3627685 23.1980907 8.3627685 23.1980907 10.9976134"></polygon>
                </g>
            </g>
        </g>
        <rect id="矩形" fill="#003366" x="365" y="0" width="1" height="50"></rect>
    </g>
</svg>