<?xml version="1.0" encoding="utf-8"?>
<!-- Generator: Adobe Illustrator 25.0.1, SVG Export Plug-In . SVG Version: 6.00 Build 0)  -->
<svg version="1.1" id="Layer_1" xmlns="http://www.w3.org/2000/svg" xmlns:xlink="http://www.w3.org/1999/xlink" x="0px" y="0px"
	 viewBox="0 0 605.9 84.6" style="enable-background:new 0 0 605.9 84.6;" xml:space="preserve">
<style type="text/css">
	.st0{fill:#996600;}
	.st1{fill:#003366;}
</style>
<g>
	<g>
		<g>
			<path class="st0" d="M42.3,84.2l-9.8-16.3c0,0-0.3-0.4-0.3-1l0-0.4v-0.8V36.6h-3.7v30.3v0.9c0.3,0.3,6.5,10.8,6.5,10.8H19.7
				c0,0,6.2-10.5,6.5-10.8v-0.9V36.6h-3.7v29.1v0.8l0,0.4c0,0.6-0.3,1-0.3,1l-9.8,16.3H42.3z"/>
		</g>
		<g>
			<path class="st0" d="M39.3,15.4c0,0,1.8-7.6-4.7-12.6c0,0-2.6-2.4-7.6-2.4c-4.5,0-7.1,2.4-7.1,2.4c-6.1,4.2-4.5,12.6-4.5,12.6
				H39.3z"/>
			<path class="st0" d="M16.1,17.5h22.5c0.2-0.4,0.3-0.9,0.5-1.3H15.6C15.7,16.6,15.9,17.1,16.1,17.5z"/>
			<path class="st0" d="M38.3,18.3H16.4c0.2,0.5,0.5,0.9,0.8,1.3h20.3C37.8,19.2,38,18.7,38.3,18.3z"/>
			<path class="st0" d="M18.7,21.4H36c0.3-0.3,0.6-0.7,0.9-1.1H17.7C18,20.7,18.3,21.1,18.7,21.4z"/>
			<path class="st0" d="M20.5,23h13.6c0.4-0.2,0.7-0.5,1-0.8H19.5C19.8,22.5,20.2,22.8,20.5,23z"/>
			<path class="st0" d="M22.4,24.1c1.5,0.7,3.2,1.1,4.9,1.1c1.8,0,3.4-0.4,4.9-1.1H22.4z"/>
		</g>
		<path class="st1" d="M50.7,25.7H32.3c0,0-1.7,0-3.1,0.9c-1.1,0.7-1.8,2.4-1.8,2.5h0c0-0.1-0.8-1.8-1.8-2.5
			c-1.4-0.9-3.1-0.9-3.1-0.9H4l-3.7,5.9h16.9c0,0,0.5,0,0.8,0.1c0.5,0.1,1.4,0.3,2.3,1c1.3,0.9,1.6,1.4,1.9,1.7
			c0.2,0.2,0.6,0.7,0.6,0.7h4.1h0.5l0,0h1.4H32c0,0,0.4-0.5,0.6-0.7c0.3-0.3,0.7-0.8,1.9-1.7c0.9-0.7,1.8-0.9,2.3-1
			c0.3-0.1,0.8-0.1,0.8-0.1h16.9L50.7,25.7z"/>
		<g>
			<g>
				<path class="st1" d="M2.2,33.4v27.7c0,0,0,0.3,0,0.4c0,0.3,0,0.6,0,0.8c0.3,3,1.2,5.2,3,8c2.7,4.5,7.6,7.7,7.6,7.7l2.3-3.7
					c0,0-3.1-1.7-5.7-5.5c-0.5-0.8-1-1.5-1.4-2.2c-0.3-0.7-0.6-1.2-0.8-1.8C7.2,64.4,7.1,64,7,63.6c-0.1-0.5-0.2-0.9-0.2-1.4
					c0-0.2,0-0.9,0-0.9v-0.1V33.4H2.2z"/>
				<path class="st1" d="M9.2,33.4v27.9c0,0,0,0.1,0,0.2c0,0.1,0,0.3,0,0.5c0,0.1,0,0.2,0,0.3c0.1,0.4,0.2,0.8,0.4,1.4
					c0.3,0.9,0.9,2.1,1.7,3.4c2.1,3.3,5.1,4.9,5.1,4.9l2.3-3.6c0,0-0.8-0.4-1.7-1.3c-0.6-0.6-1.4-1.4-2-2.3c-0.6-0.9-1-1.9-1.2-2.6
					c-0.2-0.6-0.2-1.1-0.2-1.4c0-0.3,0-0.4,0-0.4v-27H9.2z"/>
			</g>
			<g>
				<path class="st1" d="M52.6,33.4v27.7c0,0,0,0.3,0,0.4c0,0.3,0,0.6,0,0.8c-0.3,3-1.2,5.2-3,8c-2.7,4.5-7.6,7.7-7.6,7.7l-2.3-3.7
					c0,0,3.1-1.7,5.7-5.5c0.5-0.8,1-1.5,1.4-2.2c0.3-0.7,0.6-1.2,0.8-1.8c0.1-0.4,0.3-0.8,0.3-1.2c0.1-0.5,0.2-0.9,0.2-1.4
					c0-0.2,0-0.9,0-0.9v-0.1V33.4H52.6z"/>
				<path class="st1" d="M45.5,33.4v27.9c0,0,0,0.1,0,0.2c0,0.1,0,0.3,0,0.5c0,0.1,0,0.2,0,0.3c-0.1,0.4-0.2,0.8-0.4,1.4
					c-0.3,0.9-0.9,2.1-1.7,3.4c-2.1,3.3-5.1,4.9-5.1,4.9L36,68.4c0,0,0.8-0.4,1.7-1.3c0.6-0.6,1.4-1.4,2-2.3c0.6-0.9,1-1.9,1.2-2.6
					c0.2-0.6,0.2-1.1,0.2-1.4c0-0.3,0-0.4,0-0.4v-27H45.5z"/>
			</g>
		</g>
	</g>
	<g>
		<g>
			<g>
				<path class="st1" d="M116.1,52.9v20.8h-4.5v-2.2H88.1v2.2h-4.5V53.2c-0.8,0.4-2.2,0.8-4.1,1.5l-2.3-4.3
					c5.8-1.4,10.9-3.9,15.2-7.5H77.7v-4h19.7V35c-7.2,0.2-12.3,0.3-15.5,0.3l-1.6-4.4c1.8,0.1,4.1,0.1,6.7,0.1
					c12.7,0,22.4-0.7,28.9-2.2l2.1,3.9c-4.3,0.9-9.7,1.6-16.2,2.2v4H122v4h-15.4c3.6,3.5,8.9,5.9,15.8,7.3l-2.1,4.4
					c-0.6-0.3-1.3-0.5-2.1-0.8C117.4,53.6,116.7,53.3,116.1,52.9z M86.4,51.8h10.9V43C94.6,47,90.9,49.9,86.4,51.8z M111.6,55.9
					H88.1v3.6h23.6V55.9z M88.1,67.5h23.6v-4.2H88.1V67.5z M101.8,43v8.9h11.8C108.8,49.9,104.8,47,101.8,43z"/>
				<path class="st1" d="M148.7,58.9c-1.3,5.2-3.3,9.9-6.1,14.3l-3.8-3.9c2.8-4,4.7-8.2,5.7-12.8L148.7,58.9z M145.7,51.1
					c-2.6-2.2-4.8-3.9-6.7-5.2l2.9-3.6c2.3,1.2,4.6,2.8,7.1,4.6L145.7,51.1z M150.4,34h6.4v-5h4.4v5h8.7v-5h4.3v5h7.9v3.8h-7.9v4.9
					h8.6v4h-9.1c1.3,2.6,4.5,5.2,9.7,7.7l-2.1,4.3c-2.9-1.8-5.4-3.5-7.3-5.2v9.8h-15.4v3.1c0,1.1,0.6,1.7,1.7,1.7h14.2
					c1.3,0,2.1-0.5,2.4-1.5c0.3-1,0.5-2.8,0.7-5.3l4.6,1.7c-0.5,4.4-1.2,7.1-2.1,8c-0.8,0.9-2.5,1.3-4.9,1.3h-15.5
					c-2,0-3.5-0.4-4.3-1.1c-0.8-0.8-1.2-2.3-1.2-4.4V55.9c-0.8,0.7-2.3,1.7-4.4,3l-2.7-4c5.3-2.4,8.7-5.1,10.1-8.1h-7.7v-4h7.3V38
					h-6.4v-2.6l-2.9,3.6c-2.6-2.4-5-4.3-7.1-5.6l3.2-3.5c2.7,1.7,5,3.3,6.9,4.7V34z M158.6,54.8v4.7h11v-4.7H158.6z M162.2,46.7
					c-0.7,1.6-1.6,3.1-2.8,4.3h12.2c-1.1-1.2-2-2.6-2.9-4.3H162.2z M161.1,38v4.7h8.7V38H161.1z"/>
				<path class="st1" d="M209,35.5c-1.7,0.3-4.2,0.6-7.4,0.8l-1-4c7.1-0.4,13.3-1.5,18.4-3.4l1.6,3.9c-2.3,0.8-4.7,1.5-7.2,2v6.8
					h7.3v4.1h-7.3v0.4c3.6,3.3,6.3,6,8.1,7.9l-2.7,4.1c-1-1.3-1.9-2.6-2.9-3.6c-0.8-1-1.7-2.1-2.5-3.2v22.2l-4.4,0.2V54
					c-1.2,3.1-3.4,6.6-6.5,10.7l-2.7-4.3c4-4.6,7-9.5,9-14.8h-8.8v-4.1h8.9V35.5z M220.1,63v-4.4l16-2.4V28.6h4.4v27l4.3-0.7v4.4
					l-4.3,0.7v13.7h-4.4V60.5L220.1,63z M230.5,53.3c-3.3-2.7-6.2-4.9-8.7-6.4l2.8-3.2c2.4,1.2,5.3,3.2,8.9,5.9L230.5,53.3z
					 M231.4,41.6c-3.5-2.8-6.4-4.9-8.6-6.3l2.9-3.2c2.1,1.2,5,3.1,8.8,5.8L231.4,41.6z"/>
				<path class="st1" d="M279.1,42.8h-5.6v8.5c2.6-0.8,4.4-1.5,5.6-2.1v4.7c-1,0.5-2.9,1.3-5.6,2.2v11.7c0,2.3-0.3,3.8-1,4.5
					c-0.7,0.8-2.2,1.1-4.6,1.1h-3.8l-1.1-4.8l4.2,0.1c1,0,1.6-0.5,1.6-1.6v-9.8c-2.7,0.7-4.8,1.2-6.4,1.6l-1.1-5.2
					c2.8-0.3,5.3-0.8,7.6-1.4v-9.6h-7.1v-4.4h7.1v-9.8h4.7v9.8h5.6v-3.1h10.3v-6.8h4.7v6.8h11.3v4.4h-11.3v6.4h9.7v4
					c-0.4,1.7-1.5,4-3.2,6.8c-1.7,2.8-3.4,5-5.2,6.6c3.2,2.6,6.8,4.5,10.8,5.6l-2.4,4.5c-4.2-1.4-8.2-3.7-11.9-7.1
					c-5,3.9-9.9,6.3-14.5,7.2l-2.6-4.4c4.6-1,9.2-3.1,13.8-6.2c-2.5-2.5-4.9-5.9-7.2-10.2l4-1.6c2.2,3.9,4.4,6.9,6.6,9.1
					c3.3-2.6,5.6-5.9,6.9-9.9h-19v-4.4h9.5v-6.4h-10.3L279.1,42.8z"/>
				<path class="st1" d="M351.1,45.7c0.7,3.9,2.5,8,5.2,12.3c2.7,4.3,6.4,8,11.2,11.1l-3.7,4.4c-8.6-5.6-14.5-14.9-17.7-27.8h-0.8
					c-2.1,11.5-8.6,20.8-19.3,27.9l-3.6-4.5c4.5-2.6,8.4-6,11.7-10.2c3.2-4.2,5.2-8.6,6-13.1h-16.5v-5.1h17.3
					c0.4-2.9,0.6-6.9,0.6-12h5c0,5.5-0.1,9.5-0.4,12h20.3v5.1L351.1,45.7z"/>
				<path class="st1" d="M419.4,54.6v3.5c-2.8,1.5-6.3,2.9-10.4,4.2h19.9v3.9H409v2c0,3.4-1.5,5.1-4.4,5.1h-7l-1.1-3.9l6.6,0.2
					c1,0,1.4-0.5,1.4-1.4v-2h-20.8v-3.9h20.8v-2.1c2.2-0.4,5-1.1,8.4-2.1h-20.2v-3.5H419.4z M423.6,52.6H389v7h-4.3V48.8h2.4
					l-0.5-18.4c4.1-0.1,7.7-0.6,10.5-1.4l2.1,3.5c-1.8,0.6-4.6,1-8.5,1.3l0.1,2.4h7.5v3.3H391l0,2.7h7.3v3.3h-7.2l0.1,3.2h30l0-3.2
					h-6.7v-3.3h6.8l0.1-2.7h-6.9v-3.3h7l0-2.6h-7.6v-3.8h11.8l-0.5,18.9h2.5v10.8h-4.3V52.6z M407,35.3c-1.6,1-3.5,2-5.6,2.9
					l-2.4-3.2c2.7-0.7,4.4-1.4,5.3-2c-0.8-0.6-1.9-1.4-3.3-2.2l2.6-2.3c1.2,0.8,2.5,1.7,3.8,2.6c1.4-0.9,2.3-1.8,2.9-2.6l2.4,2.2
					c-0.7,1-1.6,1.8-2.8,2.6c0.6,0.6,1.5,1.4,2.5,2.5l-2.9,2.2C408.2,36.3,407.4,35.3,407,35.3z M407.3,45.2c-1.5,1-3.3,1.9-5.6,2.7
					l-2.1-3.2c2.2-0.5,3.9-1.1,5-1.7c-0.6-0.5-1.7-1.2-3.2-2.3l2.5-2.1c0.6,0.4,1.2,0.8,1.7,1.1c0.6,0.4,1.3,0.9,2,1.5
					c1-0.6,2.1-1.6,3.3-3l2.5,2.2c-1.2,1.2-2.3,2.1-3.3,2.9c0.9,0.8,1.8,1.6,2.7,2.5l-3.1,2.3C408.4,46.1,407.5,45.2,407.3,45.2z"/>
			</g>
		</g>
		<g>
			<g>
				<g>
					<path class="st1" d="M462.9,28c-2.1,4-3.6,7.3-4.5,9.9c-1.5,4.3-2.2,8.8-2.2,13.4c0,7.5,2.2,15.2,6.7,23.2h-3.6
						c-2.4-3.3-4.4-7-6.1-11.1c-1.5-4.1-2.3-8.2-2.3-12.2c0-5.5,1.4-11,4.2-16.3c1.5-2.8,2.9-5.1,4.2-6.8H462.9z"/>
					<path class="st1" d="M482,34.4v8.9c0,13.6-1.6,23.6-4.7,30l-3.3-3.7c2.5-5.8,3.8-14.8,3.8-27.1V30.8h20.1
						c-0.2-0.3-0.6-1.3-1.4-2.8l4.6-0.5c0.5,0.8,1.1,2,1.7,3.3h16.8v3.6H482z M495.4,66.8l2.7,3c-3.4,1.6-8.2,2.9-14.3,3.8l-2-3.8
						C487.6,69.4,492.1,68.4,495.4,66.8z M505.5,66.8H486V50.9h13.2v-2.3h-15.7v-3.3h35.7v3.3h-15.9v2.3h13.1v15.9H505.5
						c6.1,1.5,10.5,2.6,13.1,3.2l-2.3,3.6c-1.9-0.6-3.9-1.2-6.1-1.8c-2.5-0.7-4.8-1.4-6.9-2.1L505.5,66.8z M499.1,57.3v-3.2h-9v3.2
						H499.1z M499.1,63.6v-3.3h-9v3.3H499.1z M512.3,57.3v-3.2h-9v3.2H512.3z M512.3,63.6v-3.3h-9v3.3H512.3z"/>
					<path class="st1" d="M542.8,39.9c-0.4,4.9-1.3,9.8-2.9,14.9l-4.6-1.8c1.8-4,2.8-8.7,3-14L542.8,39.9z M540.2,72.7l-4.2-3.9
						c2.9-2.1,5.2-4.8,6.8-8c1.6-3.3,2.4-8.3,2.4-15.1V28.7h4.8v20.5C550,59.3,546.7,67.2,540.2,72.7z M554.2,54.7
						c-1-6.1-2.3-10.8-3.8-13.9l4.3-1.6c1.7,4.7,3.1,9.5,4.1,14.3L554.2,54.7z M559.7,29.1h4.6v43h-4.6V29.1z M569.5,54.3
						c-0.5-4.3-1.9-8.9-4.2-13.8l4.2-1.6c2.2,5.1,3.8,9.7,4.8,14L569.5,54.3z M575.1,28.1h4.8v45.6h-4.8V28.1z"/>
					<path class="st1" d="M605.1,51.3c0,5.5-1.4,10.9-4.2,16.3c-1.4,2.6-2.8,4.9-4.2,6.8h-3.6c2.1-4,3.6-7.3,4.6-9.8
						c1.5-4.3,2.2-8.8,2.2-13.5c0-7.5-2.2-15.2-6.7-23.2h3.6c2.4,3.2,4.4,6.9,6,11.1C604.3,43.3,605.1,47.4,605.1,51.3z"/>
				</g>
				<path class="st1" d="M495.8,46.7v-4.6h11.1v4.6l4.4,0v-4.6h6.3v-3.3h-6.3v-3.2h-4.4v3.2h-11.1v-3.2h-4.4v3.2h-6.8v3.3h6.8v4.6
					L495.8,46.7z"/>
			</g>
		</g>
	</g>
</g>
</svg>
